<svg width="1920" height="240" viewBox="0 0 1920 240" xmlns="http://www.w3.org/2000/svg"><rect width="1920" height="240" fill="#191a1a"/><path d="M1920,240C1600.3333333333333,243.16666666666666,297.8333333333333,249.16666666666666,0,240C-297.8333333333333,230.83333333333334,88.5,195.33333333333334,133,185C177.5,174.66666666666666,221.33333333333334,178.66666666666666,267,178C312.6666666666667,177.33333333333334,361,178.16666666666666,407,181C453,183.83333333333334,497.6666666666667,190.66666666666666,543,195C588.3333333333334,199.33333333333334,632.8333333333334,209.66666666666666,679,207C725.1666666666666,204.33333333333334,773.5,180.83333333333334,820,179C866.5,177.16666666666666,912.5,188,958,196C1003.5,204,1048,226.83333333333334,1093,227C1138,227.16666666666666,1182.6666666666667,198,1228,197C1273.3333333333333,196,1319,225.16666666666666,1365,221C1411,216.83333333333334,1457.5,175.5,1504,172C1550.5,168.5,1597.8333333333333,190.16666666666666,1644,200C1690.1666666666667,209.83333333333334,1735.3333333333333,227.5,1781,231C1826.6666666666667,234.5,1894.8333333333333,219.5,1918,221C1941.1666666666667,222.5,2239.6666666666665,236.83333333333334,1920,240C1600.3333333333333,243.16666666666666,297.8333333333333,249.16666666666666,0,240" fill="#4fe8de"/></svg>