<svg id="visual" viewBox="0 0 900 600" width="900" height="600" xmlns="http://www.w3.org/2000/svg" xmlns:xlink="http://www.w3.org/1999/xlink" version="1.1"><rect x="0" y="0" width="900" height="600" fill="#27323b"></rect><path d="M0 384L21.5 390.7C43 397.3 86 410.7 128.8 413.5C171.7 416.3 214.3 408.7 257.2 410.7C300 412.7 343 424.3 385.8 416.8C428.7 409.3 471.3 382.7 514.2 381.3C557 380 600 404 642.8 418.7C685.7 433.3 728.3 438.7 771.2 441.5C814 444.3 857 444.7 878.5 444.8L900 445L900 601L878.5 601C857 601 814 601 771.2 601C728.3 601 685.7 601 642.8 601C600 601 557 601 514.2 601C471.3 601 428.7 601 385.8 601C343 601 300 601 257.2 601C214.3 601 171.7 601 128.8 601C86 601 43 601 21.5 601L0 601Z" fill="#69dbfa"></path><path d="M0 401L21.5 401.7C43 402.3 86 403.7 128.8 415.2C171.7 426.7 214.3 448.3 257.2 454.8C300 461.3 343 452.7 385.8 442.8C428.7 433 471.3 422 514.2 416.3C557 410.7 600 410.3 642.8 418.8C685.7 427.3 728.3 444.7 771.2 454.3C814 464 857 466 878.5 467L900 468L900 601L878.5 601C857 601 814 601 771.2 601C728.3 601 685.7 601 642.8 601C600 601 557 601 514.2 601C471.3 601 428.7 601 385.8 601C343 601 300 601 257.2 601C214.3 601 171.7 601 128.8 601C86 601 43 601 21.5 601L0 601Z" fill="#41d7ea"></path><path d="M0 505L21.5 496.2C43 487.3 86 469.7 128.8 459C171.7 448.3 214.3 444.7 257.2 452.2C300 459.7 343 478.3 385.8 483C428.7 487.7 471.3 478.3 514.2 480.7C557 483 600 497 642.8 499.7C685.7 502.3 728.3 493.7 771.2 489.2C814 484.7 857 484.3 878.5 484.2L900 484L900 601L878.5 601C857 601 814 601 771.2 601C728.3 601 685.7 601 642.8 601C600 601 557 601 514.2 601C471.3 601 428.7 601 385.8 601C343 601 300 601 257.2 601C214.3 601 171.7 601 128.8 601C86 601 43 601 21.5 601L0 601Z" fill="#11d3d4"></path><path d="M0 489L21.5 495.2C43 501.3 86 513.7 128.8 513.7C171.7 513.7 214.3 501.3 257.2 494.3C300 487.3 343 485.7 385.8 492C428.7 498.3 471.3 512.7 514.2 512.8C557 513 600 499 642.8 492.5C685.7 486 728.3 487 771.2 496C814 505 857 522 878.5 530.5L900 539L900 601L878.5 601C857 601 814 601 771.2 601C728.3 601 685.7 601 642.8 601C600 601 557 601 514.2 601C471.3 601 428.7 601 385.8 601C343 601 300 601 257.2 601C214.3 601 171.7 601 128.8 601C86 601 43 601 21.5 601L0 601Z" fill="#00ceb9"></path><path d="M0 544L21.5 544.3C43 544.7 86 545.3 128.8 548.5C171.7 551.7 214.3 557.3 257.2 558.5C300 559.7 343 556.3 385.8 551C428.7 545.7 471.3 538.3 514.2 539.7C557 541 600 551 642.8 550.7C685.7 550.3 728.3 539.7 771.2 539C814 538.3 857 547.7 878.5 552.3L900 557L900 601L878.5 601C857 601 814 601 771.2 601C728.3 601 685.7 601 642.8 601C600 601 557 601 514.2 601C471.3 601 428.7 601 385.8 601C343 601 300 601 257.2 601C214.3 601 171.7 601 128.8 601C86 601 43 601 21.5 601L0 601Z" fill="#24c79b"></path></svg>